<svg width="21" height="16" viewBox="0 0 21 16" fill="none" xmlns="http://www.w3.org/2000/svg">
<path d="M20.254 1.49197H0.745985C0.33386 1.49197 0 1.15811 0 0.745985C0 0.33386 0.33386 0 0.745985 0H20.254C20.6661 0 21 0.33386 21 0.745985C21 1.15811 20.6659 1.49197 20.254 1.49197Z" fill="white"/>
<path d="M20.254 8.15579H0.745985C0.33386 8.15579 0 7.82193 0 7.4098C0 6.99768 0.33386 6.66382 0.745985 6.66382H20.254C20.6661 6.66382 21 6.99768 21 7.4098C21 7.82193 20.6659 8.15579 20.254 8.15579Z" fill="white"/>
<path d="M20.254 15.1472H0.745985C0.33386 15.1472 0 14.8134 0 14.4013C0 13.9891 0.33386 13.6553 0.745985 13.6553H20.254C20.6661 13.6553 21 13.9891 21 14.4013C21 14.8134 20.6659 15.1472 20.254 15.1472Z" fill="white"/>
</svg>
