<svg width="17" height="17" viewBox="0 0 17 17" fill="none" xmlns="http://www.w3.org/2000/svg">
<path d="M8.5 0.5C4.08888 0.5 0.5 4.08888 0.5 8.5C0.5 12.9111 4.08888 16.5 8.5 16.5C12.9111 16.5 16.5 12.9111 16.5 8.5C16.5 4.08888 12.9111 0.5 8.5 0.5ZM8.5 15.3901C4.70084 15.3901 1.60964 12.2989 1.60964 8.4997C1.60964 4.70053 4.70053 1.60964 8.5 1.60964C12.2992 1.60964 15.3904 4.70053 15.3904 8.5C15.3904 12.2992 12.2992 15.3901 8.5 15.3901ZM12.7542 8.47684C12.7542 8.77053 12.5161 9.01017 12.2224 9.01017H8.50003C8.20634 9.01017 7.9667 8.79374 7.9667 8.50006V3.18197C7.9667 2.88828 8.20634 2.65019 8.50003 2.65019C8.79372 2.65019 9.03336 2.88828 9.03336 3.18197V7.94326H12.2224C12.5161 7.94326 12.7542 8.1829 12.7542 8.47659V8.47684Z" fill="#1F1F1F"/>
</svg>
