<svg width="24" height="24" viewBox="0 0 24 24" fill="none" xmlns="http://www.w3.org/2000/svg">
<path d="M12 24C5.38812 24 0 18.6121 0 12C0 5.38812 5.38793 0 12 0C18.6119 0 24 5.38793 24 12C24 18.6119 18.6117 24 12 24ZM12 1.47827C6.19871 1.47827 1.47827 6.199 1.47827 12C1.47827 17.8013 6.199 22.5217 12 22.5217C17.801 22.5217 22.5217 17.801 22.5217 12C22.5217 6.19833 17.801 1.47827 12 1.47827Z" fill="#FF6569"/>
<path d="M15.9743 9.07428L14.9254 8.02539L12.0008 10.95L9.07623 8.02539L8.02734 9.07428L10.9519 11.9989L8.02734 14.9235L9.07623 15.9565L12.0008 13.0319L14.9254 15.9565L15.9743 14.9235L13.0497 11.9989L15.9743 9.07428Z" fill="#FF6569"/>
</svg>
