<svg width="16" height="16" viewBox="0 0 16 16" fill="none" xmlns="http://www.w3.org/2000/svg">
<path fill-rule="evenodd" clip-rule="evenodd" d="M10.6668 14.2222C11.6486 14.2222 12.4446 13.4263 12.4446 12.4445C12.4446 11.4626 11.6486 10.6666 10.6668 10.6666C9.68493 10.6666 8.88893 11.4626 8.88893 12.4445C8.88893 13.4263 9.68493 14.2222 10.6668 14.2222ZM14.2223 12.4445C14.2223 14.408 12.6305 16 10.6668 16C8.70306 16 7.11125 14.408 7.11125 12.4445C7.11125 10.4808 8.70306 8.88879 10.6668 8.88879C12.6305 8.88879 14.2223 10.4808 14.2223 12.4445Z" fill="#FF6569"/>
<path fill-rule="evenodd" clip-rule="evenodd" d="M13.3334 11.5554L16.0001 11.5554L16.0001 13.3333L13.3334 13.3333L13.3334 11.5554Z" fill="#FF6569"/>
<path fill-rule="evenodd" clip-rule="evenodd" d="M6.84261e-05 2.66675L2.66675 2.66675L2.66675 4.44458L6.83484e-05 4.44458L6.84261e-05 2.66675Z" fill="#FF6569"/>
<path fill-rule="evenodd" clip-rule="evenodd" d="M10.6668 2.66675L16.0001 2.66675L16.0001 4.44458L10.6668 4.44458L10.6668 2.66675Z" fill="#FF6569"/>
<path fill-rule="evenodd" clip-rule="evenodd" d="M1.4782e-05 11.5554L5.33337 11.5554L5.33337 13.3333L1.47042e-05 13.3333L1.4782e-05 11.5554Z" fill="#FF6569"/>
<path fill-rule="evenodd" clip-rule="evenodd" d="M5.33339 5.33336C6.31523 5.33336 7.11123 4.53736 7.11123 3.55552C7.11123 2.57369 6.31523 1.77784 5.33339 1.77784C4.35156 1.77784 3.55556 2.57369 3.55556 3.55552C3.55556 4.53736 4.35156 5.33336 5.33339 5.33336ZM8.88892 3.55552C8.88892 5.51923 7.2971 7.1112 5.33339 7.1112C3.36969 7.1112 1.77787 5.51923 1.77787 3.55552C1.77787 1.59182 3.36969 -2.41253e-07 5.33339 -1.55417e-07C7.2971 -6.95805e-08 8.88892 1.59182 8.88892 3.55552Z" fill="#FF6569"/>
</svg>
