<svg width="16" height="16" viewBox="0 0 16 16" fill="none" xmlns="http://www.w3.org/2000/svg">
<path d="M7.728 15.456C3.456 15.456 0 11.984 0 7.728C0 3.472 3.456 0 7.728 0C12 0 15.456 3.472 15.456 7.728C15.456 11.984 11.984 15.456 7.728 15.456ZM7.728 0.944C3.984 0.944 0.96 3.984 0.96 7.728C0.96 11.456 4 14.496 7.728 14.496C11.456 14.496 14.496 11.456 14.496 7.728C14.496 3.984 11.456 0.944 7.728 0.944Z" fill="#BEC2C5"/>
<path d="M7.80801 3.61597C6.35198 3.61597 5.15198 4.8 5.15198 6.272C5.15198 6.51195 5.34394 6.70402 5.58401 6.70402C5.82396 6.70402 6.01603 6.51206 6.01603 6.272C6.01603 5.28002 6.81603 4.48002 7.80801 4.48002C8.79998 4.47991 9.59998 5.27991 9.59998 6.272C9.59998 7.26397 8.79998 8.06397 7.80801 8.06397C7.56805 8.06397 7.37598 8.25593 7.37598 8.496V9.79197C7.37598 10.0319 7.56794 10.224 7.80801 10.224C8.04796 10.224 8.24003 10.032 8.24003 9.79197V8.87991C9.50398 8.67188 10.464 7.58394 10.464 6.25591C10.464 4.79988 9.28001 3.61597 7.80801 3.61597Z" fill="#BEC2C5"/>
<path d="M8.41601 11.536C8.41601 11.8718 8.1438 12.144 7.80798 12.144C7.47215 12.144 7.19995 11.8718 7.19995 11.536C7.19995 11.2002 7.47216 10.928 7.80798 10.928C8.14381 10.928 8.41601 11.2002 8.41601 11.536Z" fill="#BEC2C5"/>
</svg>
