<?xml version="1.0" encoding="UTF-8" standalone="no"?>
<svg
   width="24"
   height="24"
   viewBox="0 0 24 24"
   fill="none"
   version="1.1"
   id="svg6"
   sodipodi:docname="icon-search.svg"
   inkscape:version="1.1.2 (b8e25be833, 2022-02-05)"
   xmlns:inkscape="http://www.inkscape.org/namespaces/inkscape"
   xmlns:sodipodi="http://sodipodi.sourceforge.net/DTD/sodipodi-0.dtd"
   xmlns="http://www.w3.org/2000/svg"
   xmlns:svg="http://www.w3.org/2000/svg">
  <defs
     id="defs10" />
  <sodipodi:namedview
     id="namedview8"
     pagecolor="#ffffff"
     bordercolor="#666666"
     borderopacity="1.0"
     inkscape:pageshadow="2"
     inkscape:pageopacity="0.0"
     inkscape:pagecheckerboard="0"
     showgrid="false"
     inkscape:zoom="6.0619675"
     inkscape:cx="8.4131101"
     inkscape:cy="18.970738"
     inkscape:window-width="1440"
     inkscape:window-height="829"
     inkscape:window-x="-1448"
     inkscape:window-y="174"
     inkscape:window-maximized="1"
     inkscape:current-layer="svg6" />
  <path
     id="path2"
     style="color:#000000;fill:#000000;stroke-linecap:round;stroke-linejoin:round;-inkscape-stroke:none"
     d="m 11,2 c -4.9587146,0 -9,4.0412854 -9,9 0,4.958732 4.0412884,9 9,9 2.120218,0 4.07075,-0.741154 5.611328,-1.974609 l 3.681641,3.68164 a 1,1 0 0 0 1.414062,0 1,1 0 0 0 0,-1.414062 l -3.68164,-3.681641 C 19.258846,15.07075 20,13.120218 20,11 20,6.0412884 15.958732,2 11,2 Z m 0,2 c 3.877859,0 7,3.1221604 7,7 0,1.902029 -0.751627,3.621678 -1.974609,4.880859 a 1,1 0 0 0 -0.08203,0.0625 1,1 0 0 0 -0.0625,0.08203 C 14.621678,17.248373 12.902029,18 11,18 7.1221604,18 4,14.877859 4,11 4,7.1221634 7.1221634,4 11,4 Z" />
</svg>
