<svg width="14" height="13" viewBox="0 0 14 13" fill="none" xmlns="http://www.w3.org/2000/svg">
<path d="M12.5285 6.66651H3.33337C3.14922 6.66651 3 6.51729 3 6.33326C3 6.14911 3.14922 5.99989 3.33337 5.99989H12.5285L8.4308 1.90217C8.30067 1.77204 8.30067 1.561 8.4308 1.43074C8.56105 1.30061 8.77209 1.30061 8.90223 1.43074L13.5691 6.0976C13.6992 6.22773 13.6992 6.43877 13.5691 6.56903L8.90223 11.2356C8.7721 11.3657 8.56106 11.3657 8.4308 11.2356C8.30067 11.1055 8.30067 10.8943 8.4308 10.7642L12.5285 6.66651ZM0.333374 0.333371C0.333374 0.14922 0.482594 0 0.666631 0C0.850783 0 1 0.14922 1 0.333371V12.3334C1 12.5174 0.850783 12.6666 0.666631 12.6666C0.482591 12.6666 0.333374 12.5174 0.333374 12.3334V0.333371Z" fill="#949597"/>
</svg>
