<svg width="28" height="28" viewBox="0 0 28 28" fill="none" xmlns="http://www.w3.org/2000/svg">
<circle cx="14.073" cy="13.9024" r="13.9024" fill="#FF9205"/>
<path d="M17.4197 16.07C16.6385 16.4926 15.5637 16.6602 14.8538 16.7234L15.4496 17.2237L17.625 19.0768C18.4204 19.7714 17.126 20.8571 16.3221 20.1867C15.7775 19.7156 14.9792 19.0355 14.1467 18.3263L11.9714 20.1843C11.1674 20.8522 9.87298 19.7569 10.677 19.0744C11.2301 18.6032 12.0198 17.9232 12.8523 17.2213L13.4396 16.7209C12.7383 16.6578 11.6463 16.4999 10.8566 16.0676C9.92715 15.5576 9.51945 15.2588 9.87868 14.6346C10.0897 14.2801 10.6684 13.9813 11.4354 14.4962C11.4354 14.4962 12.4703 15.1981 14.141 15.1981C15.8117 15.1981 16.8466 14.4962 16.8466 14.4962C17.6136 13.9837 18.1895 14.2801 18.4033 14.6346C18.7568 15.2588 18.3491 15.5576 17.4197 16.07ZM10.4403 11.1081C10.4403 9.36671 12.1025 7.95804 14.1381 7.95804C16.1738 7.95804 17.836 9.36671 17.836 11.1081C17.836 12.8422 16.1738 14.2509 14.1381 14.2509C12.1025 14.2509 10.4403 12.8422 10.4403 11.1081ZM12.322 11.1081C12.322 11.9606 13.1374 12.6552 14.1381 12.6552C15.1389 12.6552 15.9543 11.9606 15.9543 11.1081C15.9543 10.2483 15.1389 9.55372 14.1381 9.55372C13.1374 9.55372 12.322 10.2483 12.322 11.1081Z" fill="white"/>
</svg>
