<svg width="24" height="24" viewBox="0 0 24 24" fill="none" xmlns="http://www.w3.org/2000/svg">
<path d="M17.9452 9.64151C18.2574 9.32924 18.2574 8.82254 17.9452 8.51026C17.6327 8.19775 17.1262 8.19775 16.8137 8.51026L10.7588 14.5651L8.01418 11.8205C7.70168 11.508 7.19521 11.508 6.8827 11.8205C6.57018 12.133 6.57019 12.6395 6.8827 12.952L9.91013 15.9794C10.3789 16.4479 11.1387 16.4479 11.6072 15.9794L17.9452 9.64151Z" fill="#89C905"/>
<path fill-rule="evenodd" clip-rule="evenodd" d="M24 12C24 18.6274 18.6274 24 12 24C5.37257 24 0 18.6274 0 12C0 5.37257 5.37257 0 12 0C18.6274 0 24 5.37257 24 12ZM22.4 12C22.4 17.744 17.7438 22.4 12 22.4C6.25623 22.4 1.6 17.7438 1.6 12C1.6 6.25623 6.25623 1.6 12 1.6C17.7438 1.6 22.4 6.25623 22.4 12Z" fill="#89C905"/>
</svg>
