<svg width="13" height="21" viewBox="0 0 13 21" fill="none" xmlns="http://www.w3.org/2000/svg">
<path d="M6.49982 -3.8147e-05C6.65803 -3.8147e-05 6.86827 0.0956554 6.97041 0.192778L12.7865 5.66645C13.0507 5.92203 13.0812 6.33608 12.8132 6.6339C12.5734 6.90022 12.1059 6.9069 11.8455 6.66062L7.1842 2.2668V19.8422C7.1842 20.2202 6.87779 20.5264 6.50004 20.5264C6.12203 20.5264 5.81587 20.22 5.81587 19.8422V2.2668L1.15453 6.66062C0.894179 6.9069 0.438113 6.88948 0.187089 6.6339C-0.0780361 6.36423 -0.054412 5.91797 0.213816 5.66645L6.02966 0.192778C6.1874 0.0319366 6.33941 0.00258255 6.50002 -3.8147e-05H6.49982Z" fill="black"/>
</svg>
