<svg width="20" height="22" viewBox="0 0 20 22" fill="none" xmlns="http://www.w3.org/2000/svg">
<path d="M19.8264 20.6876L15.5038 15.8854C17.2368 14.2511 18.2681 12.0079 18.3802 9.62827C18.4924 7.24876 17.6767 4.91866 16.1049 3.12824C14.5331 1.33782 12.3281 0.228027 9.95381 0.0313512C7.57979 -0.165125 5.22186 0.567359 3.37747 2.07442C1.53271 3.58171 0.344931 5.74598 0.0641317 8.11149C-0.216677 10.477 0.431632 12.8593 1.87237 14.7562C3.31294 16.6533 5.4338 17.9173 7.788 18.2818C10.1422 18.6464 12.5455 18.0832 14.4928 16.7107L18.8572 21.5572C18.9717 21.6889 19.1343 21.7691 19.3085 21.7798C19.4828 21.7905 19.654 21.7309 19.7838 21.6142C19.9137 21.4977 19.9913 21.334 19.9993 21.1595C20.0073 20.9852 19.9451 20.8151 19.8265 20.6869L19.8264 20.6876ZM1.23269 9.13693C1.23269 7.3287 1.8492 5.57443 2.98058 4.16397C4.11197 2.7535 5.69068 1.77082 7.45588 1.37863C9.22108 0.986409 11.0673 1.20778 12.6894 2.00639C14.3117 2.80501 15.6133 4.13307 16.379 5.7712C17.1447 7.40933 17.3288 9.25958 16.9012 11.0164C16.4733 12.7734 15.4592 14.3317 14.026 15.4346C12.6394 16.5089 10.9337 17.0894 9.17962 17.0838C7.07258 17.0818 5.05241 16.2439 3.5627 14.7539C2.07272 13.2641 1.23484 11.2439 1.23265 9.13698L1.23269 9.13693ZM13.7396 9.13693C13.7396 9.3096 13.671 9.47535 13.5487 9.59749C13.4266 9.71963 13.261 9.78833 13.0882 9.78833H9.83116V13.0453C9.83116 13.405 9.53963 13.6967 9.17976 13.6967C8.82007 13.6967 8.52836 13.405 8.52836 13.0453V9.78833H5.27137C4.91168 9.78833 4.61997 9.49662 4.61997 9.13693C4.61997 8.77706 4.91168 8.48553 5.27137 8.48553H8.52836V5.22854C8.52836 4.86867 8.82007 4.57714 9.17976 4.57714C9.53963 4.57714 9.83116 4.86867 9.83116 5.22854V8.48553H13.0882C13.261 8.48553 13.4266 8.55406 13.5487 8.67619C13.671 8.79833 13.7396 8.96409 13.7396 9.13693Z" fill="#BEC2C5"/>
</svg>
