<svg width="12" height="12" viewBox="0 0 12 12" fill="none" xmlns="http://www.w3.org/2000/svg">
<path d="M0.939719 0.161223C0.724755 -0.0537411 0.376188 -0.0537411 0.161223 0.161223C-0.0537411 0.376188 -0.0537411 0.724755 0.161223 0.939719L0.939719 0.161223ZM11.0603 11.8388C11.2752 12.0537 11.6238 12.0537 11.8388 11.8388C12.0537 11.6238 12.0537 11.2752 11.8388 11.0603L11.0603 11.8388ZM0.161223 11.0603C-0.0537411 11.2752 -0.0537411 11.6238 0.161223 11.8388C0.376188 12.0537 0.724755 12.0537 0.939719 11.8388L0.161223 11.0603ZM11.8388 0.939719C12.0537 0.724755 12.0537 0.376188 11.8388 0.161223C11.6238 -0.0537411 11.2752 -0.0537411 11.0603 0.161223L11.8388 0.939719ZM0.161223 0.939719L11.0603 11.8388L11.8388 11.0603L0.939719 0.161223L0.161223 0.939719ZM0.939719 11.8388L11.8388 0.939719L11.0603 0.161223L0.161223 11.0603L0.939719 11.8388Z" fill="#BEC2C5"/>
</svg>
